# Blender v2.77 (sub 0) OBJ File: ''
# www.blender.org
o Cube_Cube.002
v -25.456215 25.456196 -25.456205
v 25.456196 25.456215 -25.456205
v -25.456215 25.456196 25.456205
v 25.456196 25.456215 25.456205
v -25.456196 -25.456215 -25.456205
v 25.456215 -25.456196 -25.456205
v -25.456196 -25.456215 25.456205
v 25.456215 -25.456196 25.456205
vt 0.2530 0.9934
vt 0.4997 0.6645
vt 0.4997 0.9934
vt 0.0063 0.3355
vt 0.2530 0.6645
vt 0.0063 0.6645
vt 0.4997 0.0066
vt 0.2530 0.3355
vt 0.2530 0.0066
vt 0.7464 0.6645
vt 0.4997 0.3355
vt 0.7464 0.3355
vt 0.9930 0.3355
vt 0.9930 0.6645
vn 0.0000 -1.0000 0.0000
vn 0.0000 0.0000 -1.0000
vn -0.0000 1.0000 0.0000
vn -0.0000 0.0000 1.0000
vn 1.0000 0.0000 0.0000
vn -1.0000 -0.0000 0.0000
s off
f 4/1/1 1/2/1 2/3/1
f 8/4/2 3/5/2 4/6/2
f 6/7/3 7/8/3 8/9/3
f 2/10/4 5/11/4 6/12/4
f 3/5/5 5/11/5 1/2/5
f 8/13/6 2/10/6 6/12/6
f 4/1/1 3/5/1 1/2/1
f 8/4/2 7/8/2 3/5/2
f 6/7/3 5/11/3 7/8/3
f 2/10/4 1/2/4 5/11/4
f 3/5/5 7/8/5 5/11/5
f 8/13/6 4/14/6 2/10/6
